<svg width="67" height="67" viewBox="0 0 67 67" fill="none" xmlns="http://www.w3.org/2000/svg">
<path d="M20.3589 57.9921C13.1256 55.3255 7.39227 49.0921 5.69227 40.9921L0.158941 14.9588C-0.641059 11.3588 1.65894 7.82546 5.25894 7.05879L37.8256 0.158794L37.9256 0.125461C41.4923 -0.574539 44.9923 1.72546 45.7256 5.25879L46.8923 10.8255L61.3923 13.9255H61.4923C64.9923 14.7255 67.2589 18.2588 66.5256 21.7921L60.9923 47.8588C58.3256 60.4255 45.9256 68.4921 33.3256 65.7921C28.0589 64.6921 23.5923 61.8588 20.3589 57.9921ZM59.9923 20.4255L27.4256 13.4921L21.8923 39.5588V39.6588C19.9923 48.5921 25.7589 57.3921 34.7256 59.2921C43.6923 61.1921 52.5589 55.4588 54.4589 46.4921L59.9923 20.4255ZM46.6589 48.1588C44.5589 51.7255 40.3589 53.6921 36.0923 52.7921C31.8589 51.8921 28.8256 48.3921 28.3256 44.2921L46.6589 48.1588ZM21.5589 10.3921L6.65894 13.5921L12.1923 39.6255L12.2256 39.7255C12.7256 42.0921 13.7256 44.2255 15.0923 46.0588C14.7589 43.4921 14.8256 40.8255 15.3923 38.1588L16.8256 31.4921C15.3256 31.2255 14.0256 30.3921 13.3256 29.1921C13.5256 27.1588 15.1923 25.3588 17.4923 24.8255C17.7589 24.8255 17.9923 24.8255 18.3256 24.8255L20.9256 12.1255C21.0589 11.4921 21.2589 10.9255 21.5589 10.3921ZM43.4256 33.9255C44.4923 32.1588 46.7589 31.2255 49.0589 31.7255C51.3589 32.1921 53.0256 33.9588 53.3256 36.0255C52.2256 37.7588 49.9923 38.6921 47.6589 38.1588C45.3589 37.7255 43.6923 35.9588 43.4256 33.9255ZM27.1589 30.4588C28.2256 28.6921 30.4589 27.7588 32.7589 28.2588C34.9923 28.7255 36.7589 30.5255 37.0256 32.5588C35.9256 34.2921 33.6923 35.2588 31.3923 34.8255C29.0923 34.2588 27.4256 32.4921 27.1589 30.4588ZM33.2256 7.92546L39.7589 9.32546L39.2256 6.6588L33.2256 7.92546Z" fill="#1E1E1E"/>
</svg>
