<svg width="67" height="60" viewBox="0 0 67 60" fill="none" xmlns="http://www.w3.org/2000/svg">
<path d="M10.182 0C8.74866 0 7.382 0.466667 6.11533 1.4C4.84866 2.33333 4.11533 3.53333 3.782 5L0.348664 19.7C-0.484669 23.3333 0.181998 26.4 2.282 29.1C2.682 29.5 3.082 29.9 3.44866 30.2333C5.41533 32.1333 7.582 33.3333 10.7153 33.3333C13.8487 33.3333 16.3487 31.9667 18.2153 30.1667C20.3153 32.2333 22.8487 33.3333 25.982 33.3333C28.782 33.3333 31.4487 32.1 33.3153 30.2333C35.582 32.3333 38.1487 33.3333 40.982 33.3333C43.882 33.3333 46.3487 32.2333 48.4487 30.1667C50.3487 32.0667 52.8487 33.3333 56.0153 33.3333C59.182 33.3333 61.4153 32.1667 63.3153 30.2C63.6153 29.9 63.9153 29.5667 64.2487 29.2333C66.4487 26.5 67.1153 23.3333 66.282 19.7L62.8487 5C62.4153 3.53333 61.6487 2.33333 60.4153 1.4C59.2153 0.466667 57.9153 0 56.4487 0M56.282 6.56667L59.882 21.2667C60.182 22.7 59.882 24 58.9487 25.1667C58.1153 26.2 57.082 26.6667 55.8153 26.6667C54.782 26.6667 53.882 26.3333 53.1487 25.5333C52.4153 24.7667 52.0153 23.8667 51.9153 22.8L49.882 6.66667M10.182 6.66667H16.7487L14.7153 22.8C14.3153 25.4333 13.0153 26.6667 10.8153 26.6667C9.44866 26.6667 8.41533 26.2 7.682 25.1667C6.74866 24 6.44867 22.7 6.74867 21.2667M23.482 6.66667H29.982V22.3333C29.982 23.5 29.6153 24.5 28.782 25.4C27.9487 26.2667 26.9153 26.6667 25.6487 26.6667C24.5153 26.6667 23.5487 26.2667 22.782 25.3C22.0153 24.3333 21.6487 23.3333 21.6487 22.2V21.6667M36.6487 6.66667H43.1487L44.982 21.6667C45.2487 23.0667 44.982 24.2333 44.0153 25.2333C43.1487 26.2333 42.0153 26.6667 40.6487 26.6667C39.6153 26.6667 38.682 26.2667 37.8487 25.4C37.0153 24.5 36.6487 23.5 36.6487 22.3333M3.31533 36.7667V53.3333C3.31533 57.0333 6.282 60 9.982 60C25.5487 60 41.082 60 56.6487 60C60.3153 60 63.3153 57.0333 63.3153 53.3333V36.8333C61.482 38.7667 59.1487 39.8667 56.6487 40C53.3153 40.1 50.8153 39.1333 48.4487 36.8333C46.4487 38.8333 43.782 40 40.982 40C37.982 40 35.3153 38.8 33.3153 36.9C31.4153 38.8 28.8153 40 25.9153 40C22.882 40 20.2153 38.8333 18.2153 36.8333C16.282 38.8 13.6487 40 10.7487 40C7.74866 40 5.51533 38.8333 3.31533 36.7667Z" fill="white"/>
</svg>
