<svg width="73" height="84" viewBox="0 0 73 84" fill="none" xmlns="http://www.w3.org/2000/svg">
<path d="M12.6979 33.7927C10.9923 31.5872 10.0069 28.821 10.0069 25.8305C10.0069 18.5785 15.9196 12.7096 23.2347 12.6349C23.5379 5.60719 29.4127 0 36.6141 0C43.8155 0 49.6903 5.60719 49.9935 12.6349C57.3465 12.6723 63.2971 18.5785 63.2971 25.8305C63.2971 28.821 62.2737 31.5872 60.5681 33.7927C67.5042 34.2787 73 39.998 73 46.951C73 54.2403 67.0115 60.1466 59.6206 60.1466C56.8158 60.1466 54.2385 59.2868 52.116 57.8663L40.897 68.9312C40.9728 72.8936 41.0107 77.7158 41.0486 83.5846C41.0486 83.5846 37.4858 84.5192 32.4449 83.5846C32.4449 83.5846 32.5586 76.7065 32.7481 69.1928L21.1122 57.7168C18.9139 59.2494 16.2607 60.1466 13.3802 60.1466C5.98927 60.1466 0.000747681 54.2403 0.000747681 46.951C-0.0750504 39.8485 5.61024 34.0918 12.6979 33.7927ZM48.9701 55.0253C47.3024 52.8572 46.2412 50.2031 46.2033 47.2874C44.5356 49.0069 42.3752 50.2779 39.9495 50.876C40.1011 51.7358 40.4422 54.4646 40.7075 62.9128L48.9701 55.0253ZM32.7102 63.2866L32.8239 63.3987C32.9755 57.7168 33.165 52.5955 33.3545 50.9134C30.7393 50.2779 28.4272 48.8574 26.6838 46.951C26.6838 49.8293 25.7362 52.5208 24.1443 54.6889L32.7102 63.2866Z" fill="white"/>
</svg>
