<svg width="67" height="67" viewBox="0 0 67 67" fill="none" xmlns="http://www.w3.org/2000/svg">
<path d="M63.3333 26.6667H50V20L35 14V6.66667H43.3333V0H31.6667V14L16.6667 20V26.6667H3.33333C1.5 26.6667 0 28.1667 0 30V66.6667H26.6667V50H40V66.6667H66.6667V30C66.6667 28.1667 65.1667 26.6667 63.3333 26.6667ZM20 60H6.66667V50H20V60ZM20 43.3333H6.66667V33.3333H20V43.3333ZM33.3333 20C35.1667 20 36.6667 21.5 36.6667 23.3333C36.6667 25.1667 35.1667 26.6667 33.3333 26.6667C31.5 26.6667 30 25.1667 30 23.3333C30 21.5 31.5 20 33.3333 20ZM40 43.3333H26.6667V33.3333H40V43.3333ZM60 60H46.6667V50H60V60ZM60 43.3333H46.6667V33.3333H60V43.3333Z" fill="white"/>
</svg>
