<svg width="67" height="60" viewBox="0 0 67 60" fill="none" xmlns="http://www.w3.org/2000/svg">
<path d="M26.7128 0L20.0461 6.66667V13.3333H10.0461C6.21279 13.3333 3.77946 16.6667 3.37946 20L0.0461235 53.3333C-0.353876 56.6667 1.84612 60 6.71279 60H60.0461C64.9128 60 67.1128 56.6667 66.7128 53.3333L63.3795 20C62.9795 16.6667 60.2461 13.3333 56.7128 13.3333H46.7128V6.66667L40.0461 0H26.7128ZM26.7128 6.66667H40.0461V13.3333H26.7128V6.66667ZM30.0461 23.3333H36.7128V33.3333H46.7128V40H36.7128V50H30.0461V40H20.0461V33.3333H30.0461V23.3333Z" fill="#2E2B28"/>
</svg>
