<svg width="67" height="54" viewBox="0 0 67 54" fill="none" xmlns="http://www.w3.org/2000/svg">
<path d="M33.3333 0H10C7.34784 0 4.8043 1.05357 2.92893 2.92893C1.05357 4.8043 0 7.34784 0 10V36.6667C0 39.3188 1.05357 41.8624 2.92893 43.7377C4.8043 45.6131 7.34784 46.6667 10 46.6667L6.66667 50V53.3333H10L16.6667 46.5667L23.3333 46.6667V30H6.66667V6.66667H36.6667V13.3333H43.3333V10C43.3333 7.34784 42.2798 4.8043 40.4044 2.92893C38.529 1.05357 35.9855 0 33.3333 0ZM10 33.3333C10.8841 33.3333 11.7319 33.6845 12.357 34.3096C12.9821 34.9348 13.3333 35.7826 13.3333 36.6667C13.3333 37.5507 12.9821 38.3986 12.357 39.0237C11.7319 39.6488 10.8841 40 10 40C9.11594 40 8.2681 39.6488 7.64298 39.0237C7.01786 38.3986 6.66667 37.5507 6.66667 36.6667C6.66667 35.7826 7.01786 34.9348 7.64298 34.3096C8.2681 33.6845 9.11594 33.3333 10 33.3333ZM61.9 18.8667C61.4333 17.5333 60.1667 16.6667 58.6667 16.6667H34.7C33.1667 16.6667 31.9333 17.5333 31.4333 18.8667L26.6667 32.5667V50.9333C26.6667 52.2 27.7333 53.3333 29 53.3333H31.0667C32.3333 53.3333 33.3333 52.0667 33.3333 50.8V46.6667H60V50.8C60 52.0667 61.0333 53.3333 62.3 53.3333H64.3333C65.6 53.3333 66.6667 52.2 66.6667 50.9333V46.3667V32.5667L61.9 18.8667ZM34.7 20H58.6667L62.1 30H31.2667L34.7 20ZM33.3333 40C32.4493 40 31.6014 39.6488 30.9763 39.0237C30.3512 38.3986 30 37.5507 30 36.6667C30 35.7826 30.3512 34.9348 30.9763 34.3096C31.6014 33.6845 32.4493 33.3333 33.3333 33.3333C34.2174 33.3333 35.0652 33.6845 35.6904 34.3096C36.3155 34.9348 36.6667 35.7826 36.6667 36.6667C36.6667 37.5507 36.3155 38.3986 35.6904 39.0237C35.0652 39.6488 34.2174 40 33.3333 40ZM60 40C59.1159 40 58.2681 39.6488 57.643 39.0237C57.0179 38.3986 56.6667 37.5507 56.6667 36.6667C56.6667 35.7826 57.0179 34.9348 57.643 34.3096C58.2681 33.6845 59.1159 33.3333 60 33.3333C60.8841 33.3333 61.7319 33.6845 62.357 34.3096C62.9821 34.9348 63.3333 35.7826 63.3333 36.6667C63.3333 37.5507 62.9821 38.3986 62.357 39.0237C61.7319 39.6488 60.8841 40 60 40Z" fill="#2E2B28"/>
</svg>
